<?xml version="1.0" standalone="no"?>
<!DOCTYPE svg PUBLIC "-//W3C//DTD SVG 20010904//EN"
 "http://www.w3.org/TR/2001/REC-SVG-20010904/DTD/svg10.dtd">
<svg version="1.0" xmlns="http://www.w3.org/2000/svg"
 width="520.000000pt" height="520.000000pt" viewBox="0 0 520.000000 520.000000"
 preserveAspectRatio="xMidYMid meet">
<metadata>
Created by potrace 1.11, written by Peter Selinger 2001-2013
</metadata>
<g transform="translate(0.000000,520.000000) scale(0.100000,-0.100000)"
fill="#000000" stroke="none">
<path d="M0 2600 l0 -2600 2600 0 2600 0 0 1609 0 1609 -80 57 c-48 33 -78 60
-74 67 4 7 3 8 -5 4 -6 -4 -33 8 -62 29 -28 20 -52 35 -54 33 -2 -2 16 -87 40
-188 25 -102 45 -192 45 -200 0 -8 -21 -28 -48 -44 -26 -17 -98 -63 -161 -103
-62 -41 -115 -72 -118 -70 -2 3 18 63 45 133 l49 129 -158 3 c-88 1 -159 6
-159 10 1 4 70 79 154 166 l152 159 49 -52 49 -53 18 54 c10 29 24 58 31 63
11 8 10 14 -5 30 -15 15 -18 16 -13 3 5 -13 2 -15 -17 -11 -21 5 -22 5 -5 -9
18 -13 17 -14 -2 -14 -11 0 -18 3 -16 7 3 3 -7 21 -20 39 -14 19 -25 31 -25
27 0 -4 -9 -3 -20 3 -10 6 -17 17 -14 24 6 16 -29 31 -48 20 -10 -5 -10 -4 -1
6 10 11 19 10 52 -6 21 -10 37 -22 35 -26 -3 -4 3 -5 12 -1 12 4 15 3 10 -5
-4 -7 -3 -12 3 -12 5 0 12 4 15 9 8 12 -111 74 -126 65 -6 -4 -8 -3 -5 3 4 6
-18 23 -48 38 -48 24 -70 45 -47 45 4 0 75 9 157 20 83 11 165 21 182 23 27 2
37 9 58 48 14 26 25 49 25 53 0 3 -148 6 -329 6 l-329 0 67 -70 c37 -38 73
-70 80 -70 7 0 10 -4 7 -9 -3 -4 25 -42 63 -82 l69 -74 -44 -5 -45 -5 20 -37
19 -38 -58 0 c-32 0 -66 -3 -76 -7 -12 -4 -15 -2 -12 8 3 9 -33 43 -96 93 -56
44 -139 110 -186 148 -83 66 -86 68 -142 68 -54 0 -72 10 -47 26 6 3 9 15 6
25 -5 17 3 19 92 22 53 1 -20 4 -161 5 -142 1 -258 5 -258 10 0 4 30 26 67 48
l67 42 -39 12 c-22 7 -107 16 -190 19 -111 4 -140 8 -112 14 61 13 41 58 -37
81 -39 12 -46 12 -46 0 0 -10 -14 -14 -55 -14 -56 0 -62 4 -45 30 6 9 5 17 -3
22 -8 5 -5 12 11 23 12 9 22 24 22 33 0 12 -3 13 -12 4 -17 -17 -28 -15 -28 4
0 15 -37 16 -394 13 -359 -4 -393 -5 -380 -20 15 -17 19 -39 6 -39 -5 0 -72
-34 -151 -76 -78 -42 -145 -74 -147 -71 -3 2 20 47 51 100 30 53 55 98 55 101
0 4 -38 6 -85 6 l-85 0 20 41 c12 23 20 42 18 43 -103 74 -101 75 -113 -26
l-6 -58 -330 0 c-311 0 -329 1 -319 18 36 61 307 648 300 650 -5 2 -27 -6 -50
-18 -23 -12 -44 -20 -46 -18 -2 2 8 21 22 42 14 21 24 38 22 40 -1 1 -31 23
-65 49 l-61 47 -171 0 c-94 0 -171 3 -171 8 0 7 29 41 97 113 l35 37 -60 46
-60 46 -611 0 -611 0 0 -2600z m2127 1406 c4 -8 47 -55 96 -105 48 -49 87 -92
87 -95 0 -4 -50 -6 -111 -6 -71 0 -108 4 -104 10 9 15 -1 12 -46 -11 -23 -11
-43 -18 -47 -15 -6 7 100 235 110 236 4 0 11 -6 15 -14z m1217 -148 c16 -18
52 -57 80 -86 l51 -53 -130 1 c-71 1 -134 1 -139 1 -9 -1 59 -52 207 -155 54
-37 97 -70 95 -72 -4 -3 -193 -72 -306 -110 -29 -10 -47 -12 -55 -6 -7 6 -21
12 -32 14 -11 1 -27 9 -37 17 -9 8 -108 61 -220 118 -112 58 -219 115 -238
127 -19 12 -56 33 -82 46 -26 13 -45 27 -42 30 3 3 74 20 157 37 84 18 215 47
292 63 77 17 182 39 234 50 51 10 96 21 99 24 8 9 35 -10 66 -46z m1118 -90
c-4 -17 -2 -20 11 -15 11 4 17 1 17 -8 0 -22 -14 -18 -41 12 -13 14 -18 23
-11 19 6 -4 12 -2 12 3 0 6 4 11 9 11 5 0 7 -10 3 -22z m538 -2 c0 -2 -9 -6
-20 -9 -11 -3 -18 -1 -14 4 5 9 34 13 34 5z m-470 -21 c0 -8 -4 -15 -10 -15
-5 0 -10 7 -10 15 0 8 5 15 10 15 6 0 10 -7 10 -15z m480 1 c0 -3 -4 -8 -10
-11 -5 -3 -10 -1 -10 4 0 6 5 11 10 11 6 0 10 -2 10 -4z m-35 -15 c3 -5 2 -12
-3 -15 -5 -3 -9 1 -9 9 0 17 3 19 12 6z m-450 -21 c3 -5 2 -10 -4 -10 -5 0
-13 5 -16 10 -3 6 -2 10 4 10 5 0 13 -4 16 -10z m282 -12 c-3 -8 -6 -5 -6 6
-1 11 2 17 5 13 3 -3 4 -12 1 -19z m92 8 c-2 -2 -20 -7 -39 -11 -24 -5 -32 -4
-25 3 6 6 21 12 35 14 25 4 37 1 29 -6z m-327 -19 c-8 -9 -8 -17 0 -27 8 -12
9 -12 4 3 -3 9 0 17 5 17 6 0 9 -9 6 -20 -3 -11 0 -23 6 -28 7 -4 12 -14 12
-22 0 -8 6 -16 13 -16 6 -1 17 -2 23 -3 5 0 8 -5 5 -10 -3 -4 10 -17 29 -27
19 -10 35 -23 35 -27 0 -5 -7 -4 -15 3 -8 6 -19 9 -24 5 -6 -3 -19 8 -30 25
-10 17 -23 31 -27 30 -5 -1 -13 6 -19 16 -5 10 -20 29 -32 43 -29 32 -29 51
-2 51 16 0 19 -3 11 -13z m72 -3 c9 -22 9 -22 -19 -20 -27 1 -35 16 -9 16 8 0
12 5 9 10 -3 6 -2 10 3 10 6 0 13 -7 16 -16z m76 -194 c0 -6 -9 -2 -20 7 -11
10 -20 19 -20 21 0 1 9 -2 20 -8 11 -6 20 -15 20 -20z m64 -65 c11 -8 15 -15
9 -15 -7 0 -15 5 -18 10 -4 6 -11 8 -16 5 -5 -4 -9 -1 -9 4 0 15 11 13 34 -4z
m46 5 c0 -5 -5 -10 -11 -10 -5 0 -7 5 -4 10 3 6 8 10 11 10 2 0 4 -4 4 -10z
m-5 -40 c-3 -5 -11 -10 -16 -10 -6 0 -7 5 -4 10 3 6 11 10 16 10 6 0 7 -4 4
-10z m58 3 c-7 -2 -13 -12 -13 -21 0 -14 -2 -15 -9 -2 -12 18 -5 30 17 29 11
0 12 -3 5 -6z m-23 -68 c0 -5 -5 -3 -10 5 -5 8 -10 20 -10 25 0 6 5 3 10 -5 5
-8 10 -19 10 -25z m-1069 -55 c31 -22 114 -107 288 -292 19 -21 32 -40 29 -43
-7 -7 -770 -276 -774 -273 -7 8 402 645 411 640 5 -3 26 -18 46 -32z m-710
-118 c79 -43 92 -55 157 -142 39 -52 72 -99 72 -104 1 -5 -20 -18 -47 -28 -37
-14 -76 -18 -168 -18 l-120 0 -60 -61 -60 -61 -280 -99 c-154 -54 -284 -99
-289 -99 -5 0 28 40 75 88 46 49 155 164 243 255 120 127 162 165 171 157 10
-8 38 10 112 74 54 47 100 85 103 85 3 0 44 -21 91 -47z m2014 -507 c20 -88
39 -169 41 -180 5 -19 1 -20 -123 -17 -70 2 -129 5 -131 6 -3 4 30 80 99 225
32 68 59 128 59 134 0 7 3 7 9 2 5 -6 25 -82 46 -170z m-2670 -177 c66 -17
124 -35 129 -39 15 -13 -102 -127 -137 -135 -18 -3 -131 -33 -251 -65 -121
-32 -222 -57 -224 -54 -3 3 31 42 74 87 44 46 116 120 159 166 68 71 83 82
105 77 14 -3 79 -20 145 -37z m2556 -874 c-24 -8 -53 -16 -65 -20 -20 -6 -20
-6 -4 12 12 13 31 19 65 20 l48 1 -44 -13z"/>
<path d="M4772 5189 c3 -8 31 -126 63 -264 32 -137 59 -252 61 -253 4 -6 194
129 194 137 0 5 -29 69 -64 142 l-64 134 -77 54 c-81 57 -122 75 -113 50z"/>
<path d="M2224 5078 c-19 -9 -24 -31 -49 -224 l-29 -214 -68 0 -68 0 6 -27
c17 -68 21 -74 51 -62 15 7 100 38 187 69 87 32 163 64 167 73 9 15 0 35 -129
298 -43 89 -49 96 -68 87z"/>
<path d="M2140 5030 c-9 -6 -10 -10 -3 -10 6 0 15 5 18 10 8 12 4 12 -15 0z"/>
<path d="M1952 4931 c-7 -4 -6 -21 2 -54 l12 -47 30 31 c21 23 25 33 15 37 -7
2 -21 12 -31 22 -10 10 -22 15 -28 11z"/>
<path d="M4907 4616 l5 -24 34 20 c19 11 34 22 34 24 0 2 -17 4 -39 4 -35 0
-38 -2 -34 -24z"/>
<path d="M3742 4375 c-17 -37 -14 -45 4 -12 9 16 14 31 11 33 -2 2 -9 -7 -15
-21z"/>
<path d="M3240 4375 c0 -8 93 -209 108 -232 18 -28 19 -28 62 -1 19 12 62 35
95 50 l60 27 -42 1 c-47 0 -50 5 -28 56 11 27 11 36 2 39 -16 5 -249 65 -253
65 -2 0 -4 -2 -4 -5z"/>
<path d="M4026 4345 c-23 -18 -25 -23 -11 -21 10 1 25 12 33 24 18 28 14 27
-22 -3z"/>
<path d="M3710 4309 c-7 -11 -10 -23 -7 -25 2 -2 9 7 15 21 14 30 7 33 -8 4z"/>
<path d="M3953 4299 c-35 -22 -46 -37 -15 -20 22 13 58 40 52 41 -3 0 -20 -10
-37 -21z"/>
<path d="M3980 4270 c-17 -22 -29 -40 -27 -40 3 0 20 18 37 40 17 22 29 40 27
40 -3 0 -20 -18 -37 -40z"/>
<path d="M3843 4229 c-35 -22 -46 -37 -15 -20 22 13 58 40 52 41 -3 0 -20 -10
-37 -21z"/>
<path d="M3929 4203 c-13 -16 -12 -17 4 -4 9 7 17 15 17 17 0 8 -8 3 -21 -13z"/>
<path d="M3780 4190 c-9 -6 -10 -10 -3 -10 6 0 15 5 18 10 8 12 4 12 -15 0z"/>
<path d="M3890 4150 c-12 -16 -19 -30 -16 -30 2 0 14 14 26 30 12 17 19 30 16
30 -2 0 -14 -13 -26 -30z"/>
<path d="M4890 3481 c14 -11 30 -21 36 -21 5 0 20 -9 32 -20 11 -11 24 -16 27
-10 3 5 -23 23 -57 40 -44 22 -55 25 -38 11z"/>
<path d="M5003 3416 c0 -8 7 -12 15 -8 11 4 13 1 7 -8 -5 -8 -4 -11 3 -7 5 4
17 4 26 1 14 -5 14 -9 4 -23 -11 -14 -11 -14 3 -3 18 14 52 6 42 -11 -3 -5 -2
-8 3 -4 5 3 27 -3 48 -14 22 -10 41 -17 43 -16 2 2 -41 27 -95 55 -65 34 -99
47 -99 38z"/>
<path d="M5120 3296 c0 -2 8 -10 18 -17 15 -13 16 -12 3 4 -13 16 -21 21 -21
13z"/>
</g>
</svg>
